# xmcd
#
# Track frame offsets:
#	150
#	18712
#	32677
#	50922
#	70995
#	87017
#	102137
#	116614
#	135962
#	148610
#	164569
#	183160
#	198427
#
# Disc length: 2842 seconds
#
# Revision: 0
# Processed by: cddbd v1.5.2PL0 Copyright (c) Steve Scherf et al.
# Submitted via: dBpowerAMP V4.0
#
DISCID=b30b180d
DTITLE=Steve Carlson - Groovin' On The Inside
DYEAR=2007
DGENRE=Acoustic
TTITLE0=If It Aint Easy
TTITLE1=Pinata Novia
TTITLE2=She's Not There
TTITLE3=Now That My Love Is Gone
TTITLE4=Wonder Of My World
TTITLE5=Wasted Jamie
TTITLE6=You Belong With Me
TTITLE7=I Don't Want To Know
TTITLE8=Hole In Me
TTITLE9=The One I Want
TTITLE10=I'll Remember You
TTITLE11=Don't Move On
TTITLE12=She Loves
EXTD=
EXTT0=
EXTT1=
EXTT2=
EXTT3=
EXTT4=
EXTT5=
EXTT6=
EXTT7=
EXTT8=
EXTT9=
EXTT10=
EXTT11=
EXTT12=
PLAYORDER=
